<svg xmlns="http://www.w3.org/2000/svg" width="20px" height="20px" viewBox="0 0 80 80"><g stroke="none" stroke-width="1" fill="#ffffff" fill-rule="evenodd"><path d="M74.7 26c-6.8-7.6-18-9.1-26.6-3.8-1.8 1.1-3.6 2.7-5.1 4.6l-3 3.7-7.6 9.5-4.6 5.7c-.7.9-1.5 1.6-2.2 2-3.7 2.3-8.5 1.6-11.5-1.7a9.13 9.13 0 0 1 0-12c1.7-1.9 4.2-3 6.7-3 1.7 0 3.3.5 4.8 1.3.8.4 1.5 1.1 2.2 2l1.2 1.5 7.6-9.4c-1.5-1.7-3.1-3.2-4.8-4.2C23.2 16.9 12 18.5 5.2 26c-7 7.9-7 20.2 0 28a20.83 20.83 0 0 0 15.6 7c3.8 0 7.6-1 11-3.2 1.8-1.1 3.6-2.7 5.1-4.6l3-3.7 12.3-15.2c.7-.9 1.5-1.6 2.2-2 3.7-2.3 8.5-1.6 11.5 1.7a9.13 9.13 0 0 1 0 12c-3 3.2-7.7 3.9-11.5 1.7-.8-.4-1.5-1.1-2.2-2L51 44.1l-7.7 9.5c1.5 1.8 3.1 3.2 4.8 4.3 8.6 5.3 19.8 3.7 26.6-3.8 7.1-8 7.1-20.3 0-28.1z"/></g></svg>